<svg id="icons" xmlns="http://www.w3.org/2000/svg" viewBox="0 0 110 110"><title>bowl-rice</title><circle cx="55" cy="55" r="55" fill="#f2633a"/><g id="bowl-rice"><path d="M84.58,53.61a9.72,9.72,0,0,0-1.3-2.25c-1-.91-.2-2.94-1.07-4.06s-2.58-1.23-3.67-2.15-1.48-2.53-2.7-3.26-2.88-.3-4.18-.86-2.13-2-3.48-2.44-2.9.37-4.27.1S61.37,37.14,60,37s-2.78.92-4.17.92-2.77-1-4.08-.93-2.54,1.42-3.83,1.67-2.94-.49-4.19-.11S41.52,40.49,40.33,41s-3,.21-4.09.89-1.58,2.42-2.54,3.28-2.78,1.17-3.54,2.21.27,3.41-.88,4a4,4,0,0,0-1.85,2.2" fill="#fff"/><line x1="34" y1="25" x2="46" y2="49" fill="none" stroke="#6e2a27" stroke-linecap="round" stroke-miterlimit="10" stroke-width="2"/><line x1="26" y1="25" x2="42" y2="49" fill="none" stroke="#6e2a27" stroke-linecap="round" stroke-miterlimit="10" stroke-width="2"/><line x1="59.55" y1="40.85" x2="60.78" y2="42.08" fill="none" stroke="#ffd147" stroke-linecap="round" stroke-miterlimit="10" stroke-width="2"/><line x1="67.7" y1="42.55" x2="66.47" y2="43.78" fill="none" stroke="#ffd147" stroke-linecap="round" stroke-miterlimit="10" stroke-width="2"/><line x1="69.7" y1="48.55" x2="68.47" y2="49.78" fill="none" stroke="#ffd147" stroke-linecap="round" stroke-miterlimit="10" stroke-width="2"/><line x1="50.7" y1="47.55" x2="49.47" y2="48.78" fill="none" stroke="#ffd147" stroke-linecap="round" stroke-miterlimit="10" stroke-width="2"/><line x1="48.55" y1="43.25" x2="47.32" y2="42.02" fill="none" stroke="#ffd147" stroke-linecap="round" stroke-miterlimit="10" stroke-width="2"/><line x1="54.63" y1="41.08" x2="53.4" y2="42.32" fill="none" stroke="#ffd147" stroke-linecap="round" stroke-miterlimit="10" stroke-width="2"/><line x1="36.17" y1="48.02" x2="37.4" y2="49.25" fill="none" stroke="#ffd147" stroke-linecap="round" stroke-miterlimit="10" stroke-width="2"/><line x1="73.49" y1="44.39" x2="74.72" y2="45.62" fill="none" stroke="#ffd147" stroke-linecap="round" stroke-miterlimit="10" stroke-width="2"/><line x1="61.49" y1="46.39" x2="62.72" y2="47.62" fill="none" stroke="#ffd147" stroke-linecap="round" stroke-miterlimit="10" stroke-width="2"/><line x1="76.16" y1="49.25" x2="77.38" y2="49.25" fill="none" stroke="#ffd147" stroke-linecap="round" stroke-miterlimit="10" stroke-width="2"/><line x1="55.16" y1="48.25" x2="56.38" y2="48.25" fill="none" stroke="#ffd147" stroke-linecap="round" stroke-miterlimit="10" stroke-width="2"/><path d="M84.58,53.61a9.72,9.72,0,0,0-1.3-2.25c-1-.91-.2-2.94-1.07-4.06s-2.58-1.23-3.67-2.15-1.48-2.53-2.7-3.26-2.88-.3-4.18-.86-2.13-2-3.48-2.44-2.9.37-4.27.1S61.37,37.14,60,37s-2.78.92-4.17.92-2.77-1-4.08-.93-2.54,1.42-3.83,1.67-2.94-.49-4.19-.11S41.52,40.49,40.33,41s-3,.21-4.09.89-1.58,2.42-2.54,3.28-2.78,1.17-3.54,2.21.27,3.41-.88,4a4,4,0,0,0-1.85,2.2" fill="none" stroke="#6e2a27" stroke-linejoin="round" stroke-width="2"/><path d="M27,53H85c0,10.2-7.31,17.23-16.66,21.77A6.69,6.69,0,0,0,65.72,77H46.28a6.69,6.69,0,0,0-2.62-2.23C34.31,70.23,27,63.2,27,53Z" fill="#fff"/><path d="M30,53H85c0,9-5.65,16.46-15,21a14.09,14.09,0,0,0-4,3H50a7.51,7.51,0,0,0-2-2C39,70,30,63.2,30,53Z" fill="#ffd147"/><path d="M65.47,82.6,66.9,85H45.1l1.43-2.4a5.48,5.48,0,0,0,.62-1.6h17.7A5.48,5.48,0,0,0,65.47,82.6Z" fill="#fff"/><path d="M66,83l1,2H48.1l1.43-2.4a5.48,5.48,0,0,0,.62-1.6H65A9.35,9.35,0,0,0,66,83Z" fill="#ffd147"/><path d="M65.21,77.83A4.7,4.7,0,0,0,64.85,81H47.15a4.7,4.7,0,0,0-.36-3.17,6.36,6.36,0,0,0-.51-.83H65.72A6.36,6.36,0,0,0,65.21,77.83Z" fill="#fff"/><path d="M65,78a4.19,4.19,0,0,0,0,3H50c-.15-1,.29-2.19-.21-3.17a6.36,6.36,0,0,0-.51-.83H66C65.81,77.26,65.15,77.71,65,78Z" fill="#ffd147"/><path d="M64.85,81a5.48,5.48,0,0,0,.62,1.6L66.9,85H45.1l1.43-2.4a5.48,5.48,0,0,0,.62-1.6,4.7,4.7,0,0,0-.36-3.17,6.36,6.36,0,0,0-.51-.83,6.69,6.69,0,0,0-2.62-2.23C34.31,70.23,27,63.2,27,53H85c0,10.2-7.31,17.23-16.66,21.77A6.69,6.69,0,0,0,65.72,77a6.36,6.36,0,0,0-.51.83A4.7,4.7,0,0,0,64.85,81Z" fill="none" stroke="#6e2a27" stroke-linecap="round" stroke-linejoin="round" stroke-width="2"/><line x1="64.85" y1="80" x2="47.15" y2="80" fill="none" stroke="#6e2a27" stroke-linejoin="round" stroke-width="2"/><polyline points="66 77 65.72 77 46.28 77 46 77" fill="none" stroke="#6e2a27" stroke-linejoin="round" stroke-width="2"/><path d="M61,71.5H59V69.56a4,4,0,0,1,4-3.9h2v1.95A4,4,0,0,1,61,71.5Z" fill="#fff"/><path d="M51,71.5h2V69.56a4,4,0,0,0-4-3.9H47v1.95A4,4,0,0,0,51,71.5Z" fill="#fff"/><path d="M58.17,64.52,56,66.63l-2.17-2.12a3.83,3.83,0,0,1,0-5.51L56,56.89,58.17,59A3.83,3.83,0,0,1,58.17,64.52Z" fill="#fff"/><path d="M61,71.5H59V69.56a4,4,0,0,1,4-3.9h2v1.95A4,4,0,0,1,61,71.5Z" fill="none" stroke="#6e2a27" stroke-miterlimit="10" stroke-width="2"/><path d="M51,71.5h2V69.56a4,4,0,0,0-4-3.9H47v1.95A4,4,0,0,0,51,71.5Z" fill="none" stroke="#6e2a27" stroke-miterlimit="10" stroke-width="2"/><path d="M58.17,64.52,56,66.63l-2.17-2.12a3.83,3.83,0,0,1,0-5.51L56,56.89,58.17,59A3.83,3.83,0,0,1,58.17,64.52Z" fill="none" stroke="#6e2a27" stroke-miterlimit="10" stroke-width="2"/><line x1="56" y1="65.66" x2="56" y2="72.48" fill="none" stroke="#6e2a27" stroke-miterlimit="10" stroke-width="2"/></g></svg>