<svg xmlns="http://www.w3.org/2000/svg" viewBox="0 0 44.76 44.76"><defs><style>.cls-1{fill:#c05b9f;}.cls-2{fill:#fff;}</style></defs><title>glaces</title><g id="Calque_2" data-name="Calque 2"><g id="Calque_1-2" data-name="Calque 1"><path class="cls-1" d="M0,22.38A22.38,22.38,0,1,0,22.38,0,22.38,22.38,0,0,0,0,22.38"></path><polygon class="cls-2" points="10.93 31.85 13.01 31.82 13.05 28.74 12.61 28.75 10.93 31.85"></polygon><polygon class="cls-2" points="13.69 26.77 13.67 28.12 16.75 28.08 16.79 25 14.63 25.02 13.69 26.77"></polygon><polygon class="cls-2" points="17.33 31.77 17.42 31.77 20.43 30 20.45 28.66 17.36 28.69 17.33 31.77"></polygon><polygon class="cls-2" points="13.63 31.82 16.71 31.78 16.74 28.7 13.66 28.73 13.63 31.82"></polygon><path class="cls-2" d="M9.28,34.89s-.34.84-.07,1.11,1.12-.06,1.13-.06L13,34.39l0-2-2.41,0Z"></path><polygon class="cls-2" points="13.62 32.43 13.6 34.02 16.35 32.4 13.62 32.43"></polygon><polygon class="cls-2" points="16.8 24.38 16.84 20.97 14.97 24.4 16.8 24.38"></polygon><path class="cls-2" d="M21.1,25l0,3.08,2.76,0,2.25-1.33a4.75,4.75,0,0,1-.85-1.77Z"></path><path class="cls-2" d="M22.17,21.86a8.5,8.5,0,0,1-1-1.24l0,3.71,4,0a5.09,5.09,0,0,1,0-.56,8.08,8.08,0,0,1-2.9-1.86"></path><path class="cls-2" d="M20.33,19.12a3.93,3.93,0,0,1-2.25-.43l-.61,1.12-.06,4.56,3.09,0,.05-4.81c-.06-.12-.12-.25-.17-.37l-.05,0"></path><polygon class="cls-2" points="21.06 28.65 21.05 29.63 22.76 28.63 21.06 28.65"></polygon><polygon class="cls-2" points="17.37 28.07 20.45 28.04 20.49 24.95 17.41 24.99 17.37 28.07"></polygon><path class="cls-2" d="M34.16,25.23a4.06,4.06,0,0,1-5.74,0,3.32,3.32,0,0,1-.37-.42,4,4,0,0,1-.69-1.46,3.28,3.28,0,0,1-.1-.49,4.55,4.55,0,0,1,0-.48v-.5l-.48-.18a7.05,7.05,0,0,1-2.55-1.63A7.29,7.29,0,0,1,23.31,19a6.8,6.8,0,0,1-.53-1l0-.06-.12-.26-.1-.23-.2-.12-.22-.16-.28,0a3.13,3.13,0,0,1-1.78-.34,2.88,2.88,0,0,1-.74-.54,3.14,3.14,0,0,1,0-4.44,3.15,3.15,0,0,1,3.29-.72l.52.19.32-.45A6,6,0,0,1,24.2,10a7.12,7.12,0,0,1,10.62,9.46l-.31.39.26.44a4,4,0,0,1-.61,4.95M36.08,20l.1-.15a8.4,8.4,0,0,0-1-10.73,8.43,8.43,0,0,0-11.92,0,5.88,5.88,0,0,0-.53.58l-.13.15-.18,0a4.7,4.7,0,0,0-.92-.09,4.43,4.43,0,0,0-3.13,7.57,4.15,4.15,0,0,0,1.06.78,4.46,4.46,0,0,0,1.93.5h.2l.08.18a8.91,8.91,0,0,0,.57,1A8.62,8.62,0,0,0,23.28,21a8.32,8.32,0,0,0,2.5,1.72l.15.07L26,23S26,23,26,23c0,.21.07.43.12.65A5.4,5.4,0,0,0,27,25.6a5.2,5.2,0,0,0,.48.55,5.36,5.36,0,0,0,8.66-6Z"></path></g></g></svg>